<svg width="169" height="63" viewBox="0 0 169 63" fill="none" xmlns="http://www.w3.org/2000/svg">
<path d="M1.43484 6.72727L3.59393 12.8494H3.67915L5.83825 6.72727H6.76154L4.09109 14H3.182L0.511541 6.72727H1.43484ZM7.98072 14V8.54545H8.81879V14H7.98072ZM8.40685 7.63636C8.2435 7.63636 8.10264 7.58073 7.98427 7.46946C7.86826 7.35819 7.81026 7.22443 7.81026 7.06818C7.81026 6.91193 7.86826 6.77817 7.98427 6.6669C8.10264 6.55563 8.2435 6.5 8.40685 6.5C8.57021 6.5 8.70988 6.55563 8.82589 6.6669C8.94426 6.77817 9.00344 6.91193 9.00344 7.06818C9.00344 7.22443 8.94426 7.35819 8.82589 7.46946C8.70988 7.58073 8.57021 7.63636 8.40685 7.63636ZM14.4174 9.76705L13.6646 9.98011C13.6172 9.85464 13.5474 9.73272 13.455 9.61435C13.3651 9.49361 13.242 9.39418 13.0857 9.31605C12.9295 9.23793 12.7294 9.19886 12.4856 9.19886C12.1518 9.19886 11.8736 9.2758 11.6511 9.42969C11.4309 9.5812 11.3208 9.77415 11.3208 10.0085C11.3208 10.2169 11.3966 10.3814 11.5481 10.5021C11.6996 10.6229 11.9363 10.7235 12.2583 10.804L13.068 11.0028C13.5557 11.1212 13.9191 11.3023 14.1582 11.5462C14.3973 11.7876 14.5168 12.099 14.5168 12.4801C14.5168 12.7926 14.4269 13.072 14.2469 13.3182C14.0694 13.5644 13.8208 13.7585 13.5012 13.9006C13.1816 14.0426 12.8099 14.1136 12.3862 14.1136C11.8298 14.1136 11.3693 13.9929 11.0048 13.7514C10.6402 13.5099 10.4094 13.1572 10.3123 12.6932L11.1077 12.4943C11.1835 12.7879 11.3267 13.008 11.5374 13.1548C11.7505 13.3016 12.0287 13.375 12.3719 13.375C12.7626 13.375 13.0727 13.2921 13.3023 13.1264C13.5344 12.9583 13.6504 12.7571 13.6504 12.5227C13.6504 12.3333 13.5841 12.1747 13.4515 12.0469C13.3189 11.9167 13.1153 11.8196 12.8407 11.7557L11.9316 11.5426C11.4321 11.4242 11.0651 11.2408 10.8308 10.9922C10.5987 10.7412 10.4827 10.4276 10.4827 10.0511C10.4827 9.74337 10.5692 9.47112 10.742 9.23438C10.9172 8.99763 11.1551 8.81179 11.4558 8.67685C11.7588 8.5419 12.1021 8.47443 12.4856 8.47443C13.0254 8.47443 13.4491 8.5928 13.7569 8.82955C14.067 9.06629 14.2872 9.37879 14.4174 9.76705ZM15.9784 14V8.54545H16.8164V14H15.9784ZM16.4045 7.63636C16.2412 7.63636 16.1003 7.58073 15.9819 7.46946C15.8659 7.35819 15.8079 7.22443 15.8079 7.06818C15.8079 6.91193 15.8659 6.77817 15.9819 6.6669C16.1003 6.55563 16.2412 6.5 16.4045 6.5C16.5679 6.5 16.7075 6.55563 16.8235 6.6669C16.9419 6.77817 17.0011 6.91193 17.0011 7.06818C17.0011 7.22443 16.9419 7.35819 16.8235 7.46946C16.7075 7.58073 16.5679 7.63636 16.4045 7.63636ZM20.9236 8.54545V9.25568H18.0969V8.54545H20.9236ZM18.9207 7.23864H19.7588V12.4375C19.7588 12.6742 19.7931 12.8518 19.8618 12.9702C19.9328 13.0862 20.0228 13.1643 20.1317 13.2045C20.2429 13.2424 20.3601 13.2614 20.4832 13.2614C20.5756 13.2614 20.6513 13.2566 20.7105 13.2472C20.7697 13.2353 20.817 13.2259 20.8526 13.2188L21.023 13.9716C20.9662 13.9929 20.8869 14.0142 20.7851 14.0355C20.6833 14.0592 20.5543 14.071 20.398 14.071C20.1613 14.071 19.9293 14.0201 19.702 13.9183C19.4771 13.8165 19.2901 13.6615 19.1409 13.4531C18.9941 13.2448 18.9207 12.982 18.9207 12.6648V7.23864ZM26.1502 9.76705L25.3974 9.98011C25.35 9.85464 25.2802 9.73272 25.1879 9.61435C25.0979 9.49361 24.9748 9.39418 24.8185 9.31605C24.6623 9.23793 24.4622 9.19886 24.2184 9.19886C23.8846 9.19886 23.6064 9.2758 23.3839 9.42969C23.1637 9.5812 23.0536 9.77415 23.0536 10.0085C23.0536 10.2169 23.1294 10.3814 23.2809 10.5021C23.4324 10.6229 23.6692 10.7235 23.9911 10.804L24.8008 11.0028C25.2885 11.1212 25.6519 11.3023 25.891 11.5462C26.1301 11.7876 26.2496 12.099 26.2496 12.4801C26.2496 12.7926 26.1597 13.072 25.9798 13.3182C25.8022 13.5644 25.5536 13.7585 25.234 13.9006C24.9144 14.0426 24.5427 14.1136 24.119 14.1136C23.5626 14.1136 23.1022 13.9929 22.7376 13.7514C22.373 13.5099 22.1422 13.1572 22.0451 12.6932L22.8406 12.4943C22.9163 12.7879 23.0595 13.008 23.2702 13.1548C23.4833 13.3016 23.7615 13.375 24.1048 13.375C24.4954 13.375 24.8055 13.2921 25.0352 13.1264C25.2672 12.9583 25.3832 12.7571 25.3832 12.5227C25.3832 12.3333 25.3169 12.1747 25.1843 12.0469C25.0517 11.9167 24.8481 11.8196 24.5735 11.7557L23.6644 11.5426C23.1649 11.4242 22.7979 11.2408 22.5636 10.9922C22.3316 10.7412 22.2156 10.4276 22.2156 10.0511C22.2156 9.74337 22.302 9.47112 22.4748 9.23438C22.65 8.99763 22.8879 8.81179 23.1886 8.67685C23.4916 8.5419 23.8349 8.47443 24.2184 8.47443C24.7582 8.47443 25.1819 8.5928 25.4897 8.82955C25.7998 9.06629 26.02 9.37879 26.1502 9.76705Z" fill="black"/>
<path fill-rule="evenodd" clip-rule="evenodd" d="M13.5 31C16.2614 31 18.5 28.7614 18.5 26C18.5 23.2386 16.2614 21 13.5 21C10.7386 21 8.5 23.2386 8.5 26C8.5 28.7614 10.7386 31 13.5 31ZM20.5711 34.9289C22.4464 36.8043 23.5 39.3478 23.5 42H13.5L3.5 42C3.5 39.3478 4.55357 36.8043 6.42893 34.9289C8.3043 33.0536 10.8478 32 13.5 32C16.1522 32 18.6957 33.0536 20.5711 34.9289Z" fill="#BB945F"/>
<path d="M7.9419 57V56.3608L10.3425 53.733C10.6242 53.4252 10.8562 53.1577 11.0385 52.9304C11.2208 52.7008 11.3557 52.4853 11.4433 52.2841C11.5333 52.0805 11.5783 51.8674 11.5783 51.6449C11.5783 51.3892 11.5167 51.1679 11.3936 50.9808C11.2729 50.7938 11.1071 50.6494 10.8964 50.5476C10.6857 50.4458 10.449 50.3949 10.1862 50.3949C9.90687 50.3949 9.66302 50.4529 9.45469 50.5689C9.24872 50.6825 9.08892 50.8423 8.97528 51.0483C8.86402 51.2543 8.80838 51.4957 8.80838 51.7727H7.97031C7.97031 51.3466 8.06856 50.9725 8.26506 50.6506C8.46155 50.3286 8.72907 50.0777 9.06761 49.8977C9.40852 49.7178 9.79086 49.6278 10.2146 49.6278C10.6408 49.6278 11.0184 49.7178 11.3474 49.8977C11.6765 50.0777 11.9346 50.3203 12.1216 50.6257C12.3086 50.9311 12.4021 51.2708 12.4021 51.6449C12.4021 51.9124 12.3536 52.174 12.2565 52.4297C12.1618 52.683 11.9961 52.9659 11.7594 53.2784C11.525 53.5885 11.1995 53.9673 10.7828 54.4148L9.14929 56.1619V56.2188H12.53V57H7.9419ZM16.654 57.0994C16.1852 57.0994 15.7674 57.0189 15.4004 56.858C15.0358 56.697 14.7458 56.4732 14.5304 56.1868C14.3173 55.898 14.2013 55.563 14.1824 55.1818H15.0773C15.0962 55.4162 15.1767 55.6186 15.3187 55.7891C15.4608 55.9571 15.6466 56.0874 15.8763 56.1797C16.1059 56.272 16.3604 56.3182 16.6398 56.3182C16.9523 56.3182 17.2293 56.2637 17.4707 56.1548C17.7122 56.0459 17.9016 55.8944 18.0389 55.7003C18.1762 55.5062 18.2449 55.2812 18.2449 55.0256C18.2449 54.758 18.1786 54.5225 18.046 54.3189C17.9134 54.1129 17.7193 53.9519 17.4636 53.8359C17.208 53.7199 16.8955 53.6619 16.5261 53.6619H15.9437V52.8807H16.5261C16.815 52.8807 17.0683 52.8286 17.2861 52.7244C17.5063 52.6203 17.6779 52.4735 17.801 52.2841C17.9265 52.0947 17.9892 51.8722 17.9892 51.6165C17.9892 51.3703 17.9348 51.156 17.8259 50.9737C17.717 50.7914 17.5631 50.6494 17.3642 50.5476C17.1677 50.4458 16.9357 50.3949 16.6682 50.3949C16.4172 50.3949 16.1805 50.4411 15.958 50.5334C15.7378 50.6233 15.5579 50.7547 15.4182 50.9276C15.2785 51.098 15.2027 51.304 15.1909 51.5455H14.3386C14.3528 51.1643 14.4677 50.8305 14.6831 50.544C14.8985 50.2552 15.1803 50.0303 15.5283 49.8693C15.8786 49.7083 16.2634 49.6278 16.6824 49.6278C17.1322 49.6278 17.5181 49.719 17.8401 49.9013C18.162 50.0812 18.4094 50.3191 18.5822 50.6151C18.7551 50.911 18.8415 51.2306 18.8415 51.5739C18.8415 51.9834 18.7338 52.3326 18.5183 52.6214C18.3053 52.9103 18.0152 53.1103 17.6483 53.2216V53.2784C18.1076 53.3542 18.4662 53.5495 18.7243 53.8643C18.9823 54.1768 19.1114 54.5639 19.1114 55.0256C19.1114 55.4209 19.0036 55.776 18.7882 56.0909C18.5751 56.4034 18.2839 56.6496 17.9146 56.8295C17.5453 57.0095 17.1251 57.0994 16.654 57.0994Z" fill="black"/>
<path d="M63.0805 14V6.72727H65.6231C66.1297 6.72727 66.5476 6.81487 66.8767 6.99006C67.2057 7.16288 67.4508 7.39607 67.6117 7.68963C67.7727 7.98082 67.8532 8.30398 67.8532 8.65909C67.8532 8.97159 67.7976 9.22964 67.6863 9.43324C67.5774 9.63684 67.433 9.79782 67.2531 9.91619C67.0755 10.0346 66.8826 10.1222 66.6742 10.179V10.25C66.8968 10.2642 67.1205 10.3423 67.3454 10.4844C67.5703 10.6264 67.7585 10.83 67.91 11.0952C68.0615 11.3603 68.1373 11.6847 68.1373 12.0682C68.1373 12.4328 68.0544 12.7607 67.8887 13.0518C67.723 13.343 67.4614 13.5739 67.1039 13.7443C66.7464 13.9148 66.2812 14 65.7083 14H63.0805ZM63.9612 13.2188H65.7083C66.2836 13.2188 66.692 13.1075 66.9335 12.8849C67.1773 12.66 67.2992 12.3878 67.2992 12.0682C67.2992 11.822 67.2365 11.5947 67.111 11.3864C66.9856 11.1757 66.8068 11.0076 66.5748 10.8821C66.3428 10.7543 66.0682 10.6903 65.7509 10.6903H63.9612V13.2188ZM63.9612 9.9233H65.5947C65.8598 9.9233 66.099 9.87121 66.312 9.76705C66.5275 9.66288 66.6979 9.5161 66.8234 9.3267C66.9512 9.13731 67.0151 8.91477 67.0151 8.65909C67.0151 8.33949 66.9039 8.06842 66.6813 7.84588C66.4588 7.62098 66.1061 7.50852 65.6231 7.50852H63.9612V9.9233ZM71.8867 14.1136C71.3942 14.1136 70.9622 13.9964 70.5905 13.7621C70.2212 13.5277 69.9324 13.1998 69.724 12.7784C69.5181 12.357 69.4151 11.8646 69.4151 11.3011C69.4151 10.733 69.5181 10.237 69.724 9.81321C69.9324 9.38944 70.2212 9.06037 70.5905 8.82599C70.9622 8.59162 71.3942 8.47443 71.8867 8.47443C72.3791 8.47443 72.81 8.59162 73.1793 8.82599C73.551 9.06037 73.8398 9.38944 74.0458 9.81321C74.2541 10.237 74.3583 10.733 74.3583 11.3011C74.3583 11.8646 74.2541 12.357 74.0458 12.7784C73.8398 13.1998 73.551 13.5277 73.1793 13.7621C72.81 13.9964 72.3791 14.1136 71.8867 14.1136ZM71.8867 13.3608C72.2607 13.3608 72.5685 13.2649 72.81 13.0732C73.0514 12.8814 73.2302 12.6293 73.3462 12.3168C73.4622 12.0043 73.5202 11.6657 73.5202 11.3011C73.5202 10.9366 73.4622 10.5968 73.3462 10.282C73.2302 9.96709 73.0514 9.71259 72.81 9.51847C72.5685 9.32434 72.2607 9.22727 71.8867 9.22727C71.5126 9.22727 71.2048 9.32434 70.9634 9.51847C70.7219 9.71259 70.5432 9.96709 70.4271 10.282C70.3111 10.5968 70.2531 10.9366 70.2531 11.3011C70.2531 11.6657 70.3111 12.0043 70.4271 12.3168C70.5432 12.6293 70.7219 12.8814 70.9634 13.0732C71.2048 13.2649 71.5126 13.3608 71.8867 13.3608ZM76.6756 10.7188V14H75.8376V8.54545H76.6472V9.39773H76.7182C76.8461 9.12074 77.0402 8.8982 77.3006 8.73011C77.561 8.55966 77.8972 8.47443 78.3091 8.47443C78.6785 8.47443 79.0016 8.55019 79.2786 8.7017C79.5556 8.85085 79.771 9.07812 79.9249 9.38352C80.0788 9.68655 80.1557 10.0701 80.1557 10.5341V14H79.3177V10.5909C79.3177 10.1624 79.2064 9.8286 78.9839 9.58949C78.7613 9.34801 78.4559 9.22727 78.0677 9.22727C77.8001 9.22727 77.561 9.28527 77.3503 9.40128C77.142 9.51728 76.9775 9.68655 76.8567 9.90909C76.736 10.1316 76.6756 10.4015 76.6756 10.7188ZM85.3247 11.7699V8.54545H86.1627V14H85.3247V13.0767H85.2678C85.14 13.3537 84.9411 13.5893 84.6713 13.7834C84.4014 13.9751 84.0605 14.071 83.6485 14.071C83.3076 14.071 83.0046 13.9964 82.7394 13.8473C82.4743 13.6958 82.266 13.4685 82.1144 13.1655C81.9629 12.8601 81.8872 12.4754 81.8872 12.0114V8.54545H82.7252V11.9545C82.7252 12.3523 82.8365 12.6695 83.059 12.9062C83.2839 13.143 83.5704 13.2614 83.9184 13.2614C84.1267 13.2614 84.3386 13.2081 84.5541 13.1016C84.7719 12.995 84.9542 12.8317 85.1009 12.6115C85.2501 12.3913 85.3247 12.1108 85.3247 11.7699ZM91.7613 9.76705L91.0085 9.98011C90.9612 9.85464 90.8913 9.73272 90.799 9.61435C90.709 9.49361 90.5859 9.39418 90.4297 9.31605C90.2734 9.23793 90.0734 9.19886 89.8295 9.19886C89.4957 9.19886 89.2175 9.2758 88.995 9.42969C88.7748 9.5812 88.6648 9.77415 88.6648 10.0085C88.6648 10.2169 88.7405 10.3814 88.892 10.5021C89.0435 10.6229 89.2803 10.7235 89.6023 10.804L90.4119 11.0028C90.8996 11.1212 91.263 11.3023 91.5021 11.5462C91.7412 11.7876 91.8608 12.099 91.8608 12.4801C91.8608 12.7926 91.7708 13.072 91.5909 13.3182C91.4133 13.5644 91.1648 13.7585 90.8452 13.9006C90.5255 14.0426 90.1539 14.1136 89.7301 14.1136C89.1738 14.1136 88.7133 13.9929 88.3487 13.7514C87.9841 13.5099 87.7533 13.1572 87.6562 12.6932L88.4517 12.4943C88.5274 12.7879 88.6707 13.008 88.8814 13.1548C89.0944 13.3016 89.3726 13.375 89.7159 13.375C90.1065 13.375 90.4166 13.2921 90.6463 13.1264C90.8783 12.9583 90.9943 12.7571 90.9943 12.5227C90.9943 12.3333 90.928 12.1747 90.7954 12.0469C90.6629 11.9167 90.4593 11.8196 90.1846 11.7557L89.2755 11.5426C88.776 11.4242 88.4091 11.2408 88.1747 10.9922C87.9427 10.7412 87.8267 10.4276 87.8267 10.0511C87.8267 9.74337 87.9131 9.47112 88.0859 9.23438C88.2611 8.99763 88.499 8.81179 88.7997 8.67685C89.1027 8.5419 89.446 8.47443 89.8295 8.47443C90.3693 8.47443 90.7931 8.5928 91.1008 8.82955C91.411 9.06629 91.6311 9.37879 91.7613 9.76705ZM95.6093 14.1136C95.0837 14.1136 94.6303 13.9976 94.2492 13.7656C93.8704 13.5312 93.578 13.2045 93.372 12.7855C93.1684 12.3641 93.0666 11.8741 93.0666 11.3153C93.0666 10.7566 93.1684 10.2642 93.372 9.83807C93.578 9.40956 93.8645 9.07576 94.2314 8.83665C94.6007 8.59517 95.0316 8.47443 95.524 8.47443C95.8081 8.47443 96.0887 8.52178 96.3656 8.61648C96.6426 8.71117 96.8948 8.86506 97.122 9.07812C97.3493 9.28883 97.5304 9.56818 97.6654 9.91619C97.8003 10.2642 97.8678 10.6927 97.8678 11.2017V11.5568H93.6632V10.8324H97.0155C97.0155 10.5246 96.9539 10.25 96.8308 10.0085C96.7101 9.76705 96.5373 9.57647 96.3124 9.43679C96.0898 9.29711 95.8271 9.22727 95.524 9.22727C95.1902 9.22727 94.9014 9.31013 94.6575 9.47585C94.4161 9.6392 94.2302 9.85227 94.1 10.1151C93.9698 10.3778 93.9047 10.6596 93.9047 10.9602V11.4432C93.9047 11.8551 93.9757 12.2043 94.1178 12.4908C94.2622 12.7749 94.4622 12.9915 94.7179 13.1406C94.9736 13.2874 95.2707 13.3608 95.6093 13.3608C95.8294 13.3608 96.0283 13.33 96.2058 13.2685C96.3858 13.2045 96.5408 13.1098 96.671 12.9844C96.8012 12.8565 96.9019 12.6979 96.9729 12.5085L97.7825 12.7358C97.6973 13.0104 97.5541 13.2519 97.3529 13.4602C97.1516 13.6662 96.903 13.8272 96.6071 13.9432C96.3112 14.0568 95.9786 14.1136 95.6093 14.1136ZM103.206 9.76705L102.453 9.98011C102.406 9.85464 102.336 9.73272 102.244 9.61435C102.154 9.49361 102.031 9.39418 101.875 9.31605C101.718 9.23793 101.518 9.19886 101.274 9.19886C100.941 9.19886 100.662 9.2758 100.44 9.42969C100.22 9.5812 100.11 9.77415 100.11 10.0085C100.11 10.2169 100.185 10.3814 100.337 10.5021C100.488 10.6229 100.725 10.7235 101.047 10.804L101.857 11.0028C102.345 11.1212 102.708 11.3023 102.947 11.5462C103.186 11.7876 103.306 12.099 103.306 12.4801C103.306 12.7926 103.216 13.072 103.036 13.3182C102.858 13.5644 102.61 13.7585 102.29 13.9006C101.97 14.0426 101.599 14.1136 101.175 14.1136C100.619 14.1136 100.158 13.9929 99.7936 13.7514C99.429 13.5099 99.1982 13.1572 99.1012 12.6932L99.8966 12.4943C99.9724 12.7879 100.116 13.008 100.326 13.1548C100.539 13.3016 100.818 13.375 101.161 13.375C101.551 13.375 101.862 13.2921 102.091 13.1264C102.323 12.9583 102.439 12.7571 102.439 12.5227C102.439 12.3333 102.373 12.1747 102.24 12.0469C102.108 11.9167 101.904 11.8196 101.63 11.7557L100.72 11.5426C100.221 11.4242 99.854 11.2408 99.6196 10.9922C99.3876 10.7412 99.2716 10.4276 99.2716 10.0511C99.2716 9.74337 99.358 9.47112 99.5308 9.23438C99.706 8.99763 99.944 8.81179 100.245 8.67685C100.548 8.5419 100.891 8.47443 101.274 8.47443C101.814 8.47443 102.238 8.5928 102.546 8.82955C102.856 9.06629 103.076 9.37879 103.206 9.76705Z" fill="black"/>
<path d="M83 21L85.2249 24.31L88.8779 23.0053L88.8249 27.0563L92.5106 28.2553L90.2 31.5L92.5106 34.7447L88.8249 35.9437L88.8779 39.9947L85.2249 38.69L83 42L80.7751 38.69L77.1221 39.9947L77.1751 35.9437L73.4894 34.7447L75.8 31.5L73.4894 28.2553L77.1751 27.0563L77.1221 23.0053L80.7751 24.31L83 21Z" fill="#BB945F"/>
<path d="M74.4032 49.7273V57H73.5225V50.6506H73.4799L71.7043 51.8295V50.9347L73.5225 49.7273H74.4032ZM76.6948 57V56.3608L79.0954 53.733C79.3771 53.4252 79.6091 53.1577 79.7914 52.9304C79.9737 52.7008 80.1087 52.4853 80.1963 52.2841C80.2862 52.0805 80.3312 51.8674 80.3312 51.6449C80.3312 51.3892 80.2696 51.1679 80.1465 50.9808C80.0258 50.7938 79.8601 50.6494 79.6494 50.5476C79.4387 50.4458 79.2019 50.3949 78.9392 50.3949C78.6598 50.3949 78.416 50.4529 78.2076 50.5689C78.0017 50.6825 77.8418 50.8423 77.7282 51.0483C77.6169 51.2543 77.5613 51.4957 77.5613 51.7727H76.7232C76.7232 51.3466 76.8215 50.9725 77.018 50.6506C77.2145 50.3286 77.482 50.0777 77.8205 49.8977C78.1615 49.7178 78.5438 49.6278 78.9676 49.6278C79.3937 49.6278 79.7713 49.7178 80.1004 49.8977C80.4294 50.0777 80.6875 50.3203 80.8745 50.6257C81.0615 50.9311 81.1551 51.2708 81.1551 51.6449C81.1551 51.9124 81.1065 52.174 81.0095 52.4297C80.9148 52.683 80.749 52.9659 80.5123 53.2784C80.2779 53.5885 79.9524 53.9673 79.5357 54.4148L77.9022 56.1619V56.2188H81.2829V57H76.6948ZM82.6228 55.5085V54.7841L85.8188 49.7273H86.3444V50.8494H85.9893L83.5745 54.6705V54.7273H87.8785V55.5085H82.6228ZM86.0461 57V55.2884V54.951V49.7273H86.8842V57H86.0461ZM91.7814 57.0994C91.2464 57.0994 90.7907 56.9538 90.4143 56.6626C90.0378 56.3691 89.7502 55.9441 89.5513 55.3878C89.3525 54.8291 89.253 54.1544 89.253 53.3636C89.253 52.5777 89.3525 51.9065 89.5513 51.3501C89.7526 50.7914 90.0414 50.3653 90.4178 50.0717C90.7966 49.7758 91.2511 49.6278 91.7814 49.6278C92.3117 49.6278 92.7651 49.7758 93.1415 50.0717C93.5203 50.3653 93.8091 50.7914 94.008 51.3501C94.2092 51.9065 94.3099 52.5777 94.3099 53.3636C94.3099 54.1544 94.2104 54.8291 94.0116 55.3878C93.8127 55.9441 93.5251 56.3691 93.1486 56.6626C92.7722 56.9538 92.3165 57.0994 91.7814 57.0994ZM91.7814 56.3182C92.3117 56.3182 92.7237 56.0625 93.0172 55.5511C93.3108 55.0398 93.4576 54.3106 93.4576 53.3636C93.4576 52.7339 93.3901 52.1977 93.2552 51.755C93.1226 51.3123 92.9308 50.9749 92.6799 50.7429C92.4313 50.5109 92.1318 50.3949 91.7814 50.3949C91.2559 50.3949 90.8451 50.6541 90.5492 51.1726C90.2533 51.6887 90.1053 52.419 90.1053 53.3636C90.1053 53.9934 90.1716 54.5284 90.3042 54.9688C90.4367 55.4091 90.6273 55.7441 90.8759 55.9737C91.1269 56.2034 91.4287 56.3182 91.7814 56.3182Z" fill="black"/>
<path d="M139.93 14V6.72727H142.473C142.979 6.72727 143.397 6.81487 143.726 6.99006C144.055 7.16288 144.3 7.39607 144.461 7.68963C144.622 7.98082 144.703 8.30398 144.703 8.65909C144.703 8.97159 144.647 9.22964 144.536 9.43324C144.427 9.63684 144.282 9.79782 144.102 9.91619C143.925 10.0346 143.732 10.1222 143.524 10.179V10.25C143.746 10.2642 143.97 10.3423 144.195 10.4844C144.42 10.6264 144.608 10.83 144.759 11.0952C144.911 11.3603 144.987 11.6847 144.987 12.0682C144.987 12.4328 144.904 12.7607 144.738 13.0518C144.572 13.343 144.311 13.5739 143.953 13.7443C143.596 13.9148 143.131 14 142.558 14H139.93ZM140.811 13.2188H142.558C143.133 13.2188 143.541 13.1075 143.783 12.8849C144.027 12.66 144.149 12.3878 144.149 12.0682C144.149 11.822 144.086 11.5947 143.96 11.3864C143.835 11.1757 143.656 11.0076 143.424 10.8821C143.192 10.7543 142.918 10.6903 142.6 10.6903H140.811V13.2188ZM140.811 9.9233H142.444C142.709 9.9233 142.948 9.87121 143.161 9.76705C143.377 9.66288 143.547 9.5161 143.673 9.3267C143.801 9.13731 143.865 8.91477 143.865 8.65909C143.865 8.33949 143.753 8.06842 143.531 7.84588C143.308 7.62098 142.955 7.50852 142.473 7.50852H140.811V9.9233ZM148.736 14.1136C148.244 14.1136 147.812 13.9964 147.44 13.7621C147.071 13.5277 146.782 13.1998 146.573 12.7784C146.367 12.357 146.264 11.8646 146.264 11.3011C146.264 10.733 146.367 10.237 146.573 9.81321C146.782 9.38944 147.071 9.06037 147.44 8.82599C147.812 8.59162 148.244 8.47443 148.736 8.47443C149.229 8.47443 149.659 8.59162 150.029 8.82599C150.4 9.06037 150.689 9.38944 150.895 9.81321C151.104 10.237 151.208 10.733 151.208 11.3011C151.208 11.8646 151.104 12.357 150.895 12.7784C150.689 13.1998 150.4 13.5277 150.029 13.7621C149.659 13.9964 149.229 14.1136 148.736 14.1136ZM148.736 13.3608C149.11 13.3608 149.418 13.2649 149.659 13.0732C149.901 12.8814 150.08 12.6293 150.196 12.3168C150.312 12.0043 150.37 11.6657 150.37 11.3011C150.37 10.9366 150.312 10.5968 150.196 10.282C150.08 9.96709 149.901 9.71259 149.659 9.51847C149.418 9.32434 149.11 9.22727 148.736 9.22727C148.362 9.22727 148.054 9.32434 147.813 9.51847C147.571 9.71259 147.393 9.96709 147.277 10.282C147.161 10.5968 147.103 10.9366 147.103 11.3011C147.103 11.6657 147.161 12.0043 147.277 12.3168C147.393 12.6293 147.571 12.8814 147.813 13.0732C148.054 13.2649 148.362 13.3608 148.736 13.3608ZM154.903 14.1136C154.41 14.1136 153.978 13.9964 153.607 13.7621C153.237 13.5277 152.949 13.1998 152.74 12.7784C152.534 12.357 152.431 11.8646 152.431 11.3011C152.431 10.733 152.534 10.237 152.74 9.81321C152.949 9.38944 153.237 9.06037 153.607 8.82599C153.978 8.59162 154.41 8.47443 154.903 8.47443C155.395 8.47443 155.826 8.59162 156.195 8.82599C156.567 9.06037 156.856 9.38944 157.062 9.81321C157.27 10.237 157.374 10.733 157.374 11.3011C157.374 11.8646 157.27 12.357 157.062 12.7784C156.856 13.1998 156.567 13.5277 156.195 13.7621C155.826 13.9964 155.395 14.1136 154.903 14.1136ZM154.903 13.3608C155.277 13.3608 155.585 13.2649 155.826 13.0732C156.068 12.8814 156.246 12.6293 156.362 12.3168C156.478 12.0043 156.536 11.6657 156.536 11.3011C156.536 10.9366 156.478 10.5968 156.362 10.282C156.246 9.96709 156.068 9.71259 155.826 9.51847C155.585 9.32434 155.277 9.22727 154.903 9.22727C154.529 9.22727 154.221 9.32434 153.98 9.51847C153.738 9.71259 153.559 9.96709 153.443 10.282C153.327 10.5968 153.269 10.9366 153.269 11.3011C153.269 11.6657 153.327 12.0043 153.443 12.3168C153.559 12.6293 153.738 12.8814 153.98 13.0732C154.221 13.2649 154.529 13.3608 154.903 13.3608ZM159.635 12.0114L159.621 10.9744H159.791L162.178 8.54545H163.215L160.672 11.1165H160.601L159.635 12.0114ZM158.854 14V6.72727H159.692V14H158.854ZM162.32 14L160.189 11.3011L160.786 10.7188L163.385 14H162.32ZM168.357 9.76705L167.604 9.98011C167.557 9.85464 167.487 9.73272 167.394 9.61435C167.305 9.49361 167.181 9.39418 167.025 9.31605C166.869 9.23793 166.669 9.19886 166.425 9.19886C166.091 9.19886 165.813 9.2758 165.591 9.42969C165.37 9.5812 165.26 9.77415 165.26 10.0085C165.26 10.2169 165.336 10.3814 165.488 10.5021C165.639 10.6229 165.876 10.7235 166.198 10.804L167.007 11.0028C167.495 11.1212 167.859 11.3023 168.098 11.5462C168.337 11.7876 168.456 12.099 168.456 12.4801C168.456 12.7926 168.366 13.072 168.186 13.3182C168.009 13.5644 167.76 13.7585 167.441 13.9006C167.121 14.0426 166.749 14.1136 166.326 14.1136C165.769 14.1136 165.309 13.9929 164.944 13.7514C164.58 13.5099 164.349 13.1572 164.252 12.6932L165.047 12.4943C165.123 12.7879 165.266 13.008 165.477 13.1548C165.69 13.3016 165.968 13.375 166.311 13.375C166.702 13.375 167.012 13.2921 167.242 13.1264C167.474 12.9583 167.59 12.7571 167.59 12.5227C167.59 12.3333 167.524 12.1747 167.391 12.0469C167.258 11.9167 167.055 11.8196 166.78 11.7557L165.871 11.5426C165.372 11.4242 165.005 11.2408 164.77 10.9922C164.538 10.7412 164.422 10.4276 164.422 10.0511C164.422 9.74337 164.509 9.47112 164.681 9.23438C164.857 8.99763 165.095 8.81179 165.395 8.67685C165.698 8.5419 166.042 8.47443 166.425 8.47443C166.965 8.47443 167.389 8.5928 167.696 8.82955C168.006 9.06629 168.227 9.37879 168.357 9.76705Z" fill="black"/>
<rect x="144" y="21" width="20" height="21" fill="#BB945F"/>
<rect x="146" y="21" width="1" height="19" fill="#826844"/>
<rect x="145" y="21" width="1" height="21" fill="white"/>
<path d="M151.725 57V56.3608L154.126 53.733C154.408 53.4252 154.64 53.1577 154.822 52.9304C155.004 52.7008 155.139 52.4853 155.227 52.2841C155.317 52.0805 155.362 51.8674 155.362 51.6449C155.362 51.3892 155.3 51.1679 155.177 50.9808C155.056 50.7938 154.891 50.6494 154.68 50.5476C154.469 50.4458 154.233 50.3949 153.97 50.3949C153.69 50.3949 153.447 50.4529 153.238 50.5689C153.032 50.6825 152.873 50.8423 152.759 51.0483C152.648 51.2543 152.592 51.4957 152.592 51.7727H151.754C151.754 51.3466 151.852 50.9725 152.049 50.6506C152.245 50.3286 152.513 50.0777 152.851 49.8977C153.192 49.7178 153.574 49.6278 153.998 49.6278C154.424 49.6278 154.802 49.7178 155.131 49.8977C155.46 50.0777 155.718 50.3203 155.905 50.6257C156.092 50.9311 156.186 51.2708 156.186 51.6449C156.186 51.9124 156.137 52.174 156.04 52.4297C155.945 52.683 155.78 52.9659 155.543 53.2784C155.309 53.5885 154.983 53.9673 154.566 54.4148L152.933 56.1619V56.2188H156.314V57H151.725Z" fill="black"/>
</svg>
