<svg width="336" height="48" viewBox="0 0 336 48" fill="none" xmlns="http://www.w3.org/2000/svg">
<g filter="url(#filter0_d)">
<rect x="288.5" y="0.5" width="47" height="47" rx="23.5" stroke="#666666"/>
</g>
<path d="M312 14C309.675 14.0082 307.426 14.826 305.64 16.3128C303.853 17.7995 302.639 19.8623 302.209 22.1466C301.778 24.4309 302.156 26.7939 303.279 28.8293C304.401 30.8648 306.198 32.4456 308.36 33.3C308.26 32.51 308.19 31.3 308.39 30.43L309.56 25.46C309.56 25.46 309.26 24.86 309.26 23.98C309.26 22.59 310.07 21.56 311.08 21.56C311.93 21.56 312.35 22.2 312.35 22.96C312.35 23.82 311.8 25.1 311.51 26.29C311.27 27.29 312.01 28.1 313 28.1C314.78 28.1 316.14 26.23 316.14 23.53C316.14 21.13 314.42 19.47 311.96 19.47C311.376 19.4443 310.792 19.5373 310.245 19.7434C309.697 19.9495 309.197 20.2644 308.775 20.669C308.352 21.0737 308.016 21.5598 307.787 22.0979C307.557 22.636 307.439 23.215 307.44 23.8C307.44 24.66 307.77 25.58 308.18 26.08C308.26 26.18 308.27 26.27 308.24 26.37L307.96 27.5C307.92 27.68 307.81 27.73 307.63 27.64C306.37 27.05 305.59 25.24 305.59 23.76C305.59 20.61 307.89 17.72 312.21 17.72C315.67 17.72 318.38 20.18 318.38 23.49C318.38 26.94 316.2 29.71 313.18 29.71C312.18 29.71 311.22 29.18 310.9 28.56L310.27 30.93C309.975 31.8577 309.558 32.7421 309.03 33.56C310.404 33.9816 311.852 34.1021 313.277 33.9133C314.702 33.7245 316.069 33.2309 317.285 32.4661C318.502 31.7014 319.54 30.6833 320.327 29.4814C321.115 28.2795 321.634 26.9219 321.85 25.5011C322.066 24.0804 321.973 22.6298 321.577 21.2482C321.182 19.8666 320.493 18.5865 319.559 17.4951C318.624 16.4036 317.465 15.5264 316.16 14.9233C314.856 14.3202 313.437 14.0053 312 14Z" fill="white"/>
<g filter="url(#filter1_d)">
<rect x="216.5" y="0.5" width="47" height="47" rx="23.5" stroke="#666666"/>
</g>
<path d="M250 17.88C249.25 18.25 248.5 18.38 247.62 18.5C248.5 18 249.12 17.25 249.37 16.25C248.561 16.7313 247.674 17.0696 246.75 17.25C245.948 16.4623 244.874 16.0145 243.75 16C241.62 16 239.75 17.88 239.75 20.13C239.75 20.5 239.75 20.75 239.88 21C238.242 20.9382 236.636 20.5271 235.17 19.7941C233.704 19.0611 232.412 18.0232 231.38 16.75C231.008 17.3956 230.834 18.1363 230.88 18.88C230.892 19.552 231.068 20.2108 231.394 20.7984C231.72 21.3861 232.186 21.8846 232.75 22.25C232.12 22.25 231.5 22 230.87 21.75C230.87 23.75 232.25 25.38 234.12 25.75C233.75 25.88 233.37 25.88 233 25.88C232.75 25.88 232.5 25.88 232.25 25.75C232.75 27.38 234.25 28.63 236.13 28.63C234.678 29.7963 232.862 30.4156 231 30.38H230C231.875 31.5591 234.036 32.2056 236.25 32.25C243.75 32.25 247.88 26 247.88 20.62V20.12C248.739 19.5335 249.462 18.7697 250 17.88Z" fill="white"/>
<g filter="url(#filter2_d)">
<rect x="144.5" y="0.5" width="47" height="47" rx="23.5" stroke="#666666"/>
</g>
<path d="M165.78 34L165.75 25.25H162V21.5H165.75V19C165.75 15.63 167.84 14 170.85 14C172.29 14 173.53 14.1 173.89 14.15V17.68H171.8C170.17 17.68 169.85 18.46 169.85 19.6V21.5H174.5L173.25 25.25H169.85V34H165.78Z" fill="white"/>
<g filter="url(#filter3_d)">
<rect x="72.5" y="0.5" width="47" height="47" rx="23.5" stroke="#666666"/>
</g>
<path d="M97.02 14C98.82 14 99.2 14.02 100.12 14.06C101.18 14.11 101.91 14.28 102.54 14.53C103.2 14.78 103.76 15.13 104.31 15.68C104.87 16.23 105.21 16.79 105.47 17.45C105.72 18.08 105.88 18.81 105.93 19.88C105.98 20.83 105.99 21.2 105.99 23.2V24.8C105.99 26.8 105.98 27.17 105.93 28.12C105.914 28.9468 105.759 29.7651 105.47 30.54C105.21 31.2 104.87 31.76 104.32 32.31C103.76 32.87 103.2 33.21 102.54 33.47C101.91 33.72 101.18 33.88 100.12 33.93C99.17 33.98 98.79 33.99 96.79 33.99H95.2C93.2 33.99 92.83 33.98 91.87 33.93C91.0432 33.9141 90.225 33.7586 89.45 33.47C88.7836 33.2195 88.1797 32.8271 87.68 32.32C87.1678 31.8186 86.7719 31.211 86.52 30.54C86.2317 29.765 86.0761 28.9468 86.06 28.12C86.011 27.0874 85.991 26.0537 86 25.02V22.97C86 21.17 86.02 20.79 86.06 19.87C86.11 18.81 86.28 18.08 86.52 17.45C86.78 16.79 87.12 16.23 87.68 15.68C88.1752 15.1674 88.7805 14.7742 89.45 14.53C90.2245 14.2382 91.0427 14.0793 91.87 14.06C92.79 14.02 93.17 14 94.97 14H97.02ZM97.04 15.8H94.95C93.22 15.8 92.85 15.82 91.95 15.86C90.98 15.9 90.45 16.06 90.1 16.2C89.63 16.38 89.3 16.6 88.95 16.95C88.6 17.3 88.38 17.63 88.2 18.1C88.07 18.45 87.9 18.98 87.86 19.96C87.82 20.86 87.8 21.22 87.8 22.96V25.04C87.8 26.78 87.82 27.14 87.86 28.04C87.9 29.01 88.06 29.54 88.2 29.89C88.38 30.36 88.6 30.69 88.95 31.04C89.3 31.39 89.63 31.61 90.1 31.79C90.45 31.93 90.98 32.09 91.96 32.13C92.93 32.18 93.28 32.19 95.44 32.19H96.55C98.72 32.19 99.06 32.18 100.04 32.13C101.01 32.09 101.54 31.93 101.89 31.79C102.36 31.61 102.69 31.39 103.04 31.04C103.39 30.69 103.61 30.36 103.79 29.89C103.93 29.54 104.09 29.01 104.13 28.04C104.18 27.06 104.19 26.72 104.19 24.55V23.45C104.19 21.28 104.18 20.93 104.13 19.95C104.09 18.98 103.93 18.45 103.79 18.1C103.629 17.6654 103.373 17.2725 103.04 16.95C102.718 16.6169 102.325 16.3606 101.89 16.2C101.297 15.9832 100.671 15.8682 100.04 15.86C99.0408 15.8123 98.0404 15.7923 97.04 15.8ZM96 18.86C97.3619 18.86 98.668 19.401 99.631 20.364C100.594 21.327 101.135 22.6331 101.135 23.995C101.135 25.3569 100.594 26.663 99.631 27.626C98.668 28.589 97.3619 29.13 96 29.13C94.6381 29.13 93.332 28.589 92.369 27.626C91.406 26.663 90.865 25.3569 90.865 23.995C90.865 22.6331 91.406 21.327 92.369 20.364C93.332 19.401 94.6381 18.86 96 18.86ZM96 20.66C95.1155 20.66 94.2673 21.0114 93.6418 21.6368C93.0164 22.2622 92.665 23.1105 92.665 23.995C92.665 24.8795 93.0164 25.7278 93.6418 26.3532C94.2673 26.9786 95.1155 27.33 96 27.33C96.8845 27.33 97.7328 26.9786 98.3582 26.3532C98.9837 25.7278 99.335 24.8795 99.335 23.995C99.335 23.1105 98.9837 22.2622 98.3582 21.6368C97.7328 21.0114 96.8845 20.66 96 20.66ZM101.33 17.46C101.648 17.46 101.954 17.5864 102.179 17.8115C102.404 18.0365 102.53 18.3417 102.53 18.66C102.53 18.9783 102.404 19.2835 102.179 19.5085C101.954 19.7336 101.648 19.86 101.33 19.86C101.012 19.86 100.707 19.7336 100.482 19.5085C100.256 19.2835 100.13 18.9783 100.13 18.66C100.13 18.3417 100.256 18.0365 100.482 17.8115C100.707 17.5864 101.012 17.46 101.33 17.46Z" fill="white"/>
<g filter="url(#filter4_d)">
<rect x="0.5" y="0.5" width="47" height="47" rx="23.5" stroke="#666666"/>
</g>
<path d="M22.03 27.38V20.62L27.97 24L22.03 27.38ZM35.23 18.5C35.1026 18.0177 34.8508 17.5773 34.4998 17.2229C34.1488 16.8684 33.711 16.6122 33.23 16.48C31.46 16 24.35 16 24.35 16C24.35 16 17.25 16 15.48 16.48C14.999 16.6122 14.5612 16.8684 14.2102 17.2229C13.8592 17.5773 13.6074 18.0177 13.48 18.5C13 20.28 13 24 13 24C13 24 13 27.72 13.47 29.5C13.5983 29.9835 13.8516 30.4247 14.2044 30.7793C14.5572 31.1338 14.9972 31.3893 15.48 31.52C17.25 32 24.36 32 24.36 32C24.36 32 31.46 32 33.23 31.52C33.711 31.3878 34.1488 31.1316 34.4998 30.7771C34.8508 30.4227 35.1026 29.9823 35.23 29.5C35.71 27.72 35.71 24 35.71 24C35.71 24 35.71 20.28 35.24 18.5H35.23Z" fill="white"/>
<defs>
<filter id="filter0_d" x="288" y="0" width="48" height="48" filterUnits="userSpaceOnUse" color-interpolation-filters="sRGB">
<feFlood flood-opacity="0" result="BackgroundImageFix"/>
<feColorMatrix in="SourceAlpha" type="matrix" values="0 0 0 0 0 0 0 0 0 0 0 0 0 0 0 0 0 0 127 0" result="hardAlpha"/>
<feOffset/>
<feColorMatrix type="matrix" values="0 0 0 0 0.4 0 0 0 0 0.4 0 0 0 0 0.4 0 0 0 1 0"/>
<feBlend mode="normal" in2="BackgroundImageFix" result="effect1_dropShadow"/>
<feBlend mode="normal" in="SourceGraphic" in2="effect1_dropShadow" result="shape"/>
</filter>
<filter id="filter1_d" x="216" y="0" width="48" height="48" filterUnits="userSpaceOnUse" color-interpolation-filters="sRGB">
<feFlood flood-opacity="0" result="BackgroundImageFix"/>
<feColorMatrix in="SourceAlpha" type="matrix" values="0 0 0 0 0 0 0 0 0 0 0 0 0 0 0 0 0 0 127 0" result="hardAlpha"/>
<feOffset/>
<feColorMatrix type="matrix" values="0 0 0 0 0.4 0 0 0 0 0.4 0 0 0 0 0.4 0 0 0 1 0"/>
<feBlend mode="normal" in2="BackgroundImageFix" result="effect1_dropShadow"/>
<feBlend mode="normal" in="SourceGraphic" in2="effect1_dropShadow" result="shape"/>
</filter>
<filter id="filter2_d" x="144" y="0" width="48" height="48" filterUnits="userSpaceOnUse" color-interpolation-filters="sRGB">
<feFlood flood-opacity="0" result="BackgroundImageFix"/>
<feColorMatrix in="SourceAlpha" type="matrix" values="0 0 0 0 0 0 0 0 0 0 0 0 0 0 0 0 0 0 127 0" result="hardAlpha"/>
<feOffset/>
<feColorMatrix type="matrix" values="0 0 0 0 0.4 0 0 0 0 0.4 0 0 0 0 0.4 0 0 0 1 0"/>
<feBlend mode="normal" in2="BackgroundImageFix" result="effect1_dropShadow"/>
<feBlend mode="normal" in="SourceGraphic" in2="effect1_dropShadow" result="shape"/>
</filter>
<filter id="filter3_d" x="72" y="0" width="48" height="48" filterUnits="userSpaceOnUse" color-interpolation-filters="sRGB">
<feFlood flood-opacity="0" result="BackgroundImageFix"/>
<feColorMatrix in="SourceAlpha" type="matrix" values="0 0 0 0 0 0 0 0 0 0 0 0 0 0 0 0 0 0 127 0" result="hardAlpha"/>
<feOffset/>
<feColorMatrix type="matrix" values="0 0 0 0 0.4 0 0 0 0 0.4 0 0 0 0 0.4 0 0 0 1 0"/>
<feBlend mode="normal" in2="BackgroundImageFix" result="effect1_dropShadow"/>
<feBlend mode="normal" in="SourceGraphic" in2="effect1_dropShadow" result="shape"/>
</filter>
<filter id="filter4_d" x="0" y="0" width="48" height="48" filterUnits="userSpaceOnUse" color-interpolation-filters="sRGB">
<feFlood flood-opacity="0" result="BackgroundImageFix"/>
<feColorMatrix in="SourceAlpha" type="matrix" values="0 0 0 0 0 0 0 0 0 0 0 0 0 0 0 0 0 0 127 0" result="hardAlpha"/>
<feOffset/>
<feColorMatrix type="matrix" values="0 0 0 0 0.4 0 0 0 0 0.4 0 0 0 0 0.4 0 0 0 1 0"/>
<feBlend mode="normal" in2="BackgroundImageFix" result="effect1_dropShadow"/>
<feBlend mode="normal" in="SourceGraphic" in2="effect1_dropShadow" result="shape"/>
</filter>
</defs>
</svg>
